HIERARCHY
ROOT Hips
{
	OFFSET 0.000000 0.000000 0.000000
	CHANNELS 6 Xposition Yposition Zposition Zrotation Yrotation Xrotation 
	JOINT LHipJoint
	{
		OFFSET 0.000000 0.000000 0.000000
		CHANNELS 3 Zrotation Yrotation Xrotation
		JOINT LeftUpLeg
		{
			OFFSET 1.363060 -1.794630 0.839290
			CHANNELS 3 Zrotation Yrotation Xrotation
			JOINT LeftLeg
			{
				OFFSET 2.448110 -6.726130 0.000000
				CHANNELS 3 Zrotation Yrotation Xrotation
				JOINT LeftFoot
				{
					OFFSET 2.562200 -7.039590 0.000000
					CHANNELS 3 Zrotation Yrotation Xrotation
					JOINT LeftToeBase
					{
						OFFSET 0.157640 -0.433110 2.322550
						CHANNELS 3 Zrotation Yrotation Xrotation
						End Site
						{
							OFFSET 0.000000 0.000000 0.000000
						}
					}
				}
			}
		}
	}
	JOINT RHipJoint
	{
		OFFSET 0.000000 0.000000 0.000000
		CHANNELS 3 Zrotation Yrotation Xrotation
		JOINT RightUpLeg
		{
			OFFSET -1.305520 -1.794630 0.839290
			CHANNELS 3 Zrotation Yrotation Xrotation
			JOINT RightLeg
			{
				OFFSET -2.542530 -6.985550 0.000000
				CHANNELS 3 Zrotation Yrotation Xrotation
				JOINT RightFoot
				{
					OFFSET -2.568260 -7.056230 0.000000
					CHANNELS 3 Zrotation Yrotation Xrotation
					JOINT RightToeBase
					{
						OFFSET -0.164730 -0.452590 2.363150
						CHANNELS 3 Zrotation Yrotation Xrotation
						End Site
						{
							OFFSET 0.000000 0.000000 0.000000
						}
					}
				}
			}
		}
	}
	JOINT LowerBack
	{
		OFFSET 0.000000 0.000000 0.000000
		CHANNELS 3 Zrotation Yrotation Xrotation
		JOINT Spine
		{
			OFFSET 0.028270 2.035590 -0.193380
			CHANNELS 3 Zrotation Yrotation Xrotation
			JOINT Spine1
			{
				OFFSET 0.056720 2.048850 -0.042750
				CHANNELS 3 Zrotation Yrotation Xrotation
				JOINT Neck
				{
					OFFSET 0.000000 0.000000 0.000000
					CHANNELS 3 Zrotation Yrotation Xrotation
					JOINT Neck1
					{
						OFFSET -0.054170 1.746240 0.172020
						CHANNELS 3 Zrotation Yrotation Xrotation
						JOINT Head
						{
							OFFSET 0.104070 1.761360 -0.123970
							CHANNELS 3 Zrotation Yrotation Xrotation
							End Site
							{
								OFFSET 0.000000 0.000000 0.000000
							}
						}
					}
				}
				JOINT LeftShoulder
				{
					OFFSET 0.000000 0.000000 0.000000
					CHANNELS 3 Zrotation Yrotation Xrotation
					JOINT LeftArm
					{
						OFFSET 3.362410 1.200890 -0.311210
						CHANNELS 3 Zrotation Yrotation Xrotation
						JOINT LeftForeArm
						{
							OFFSET 4.983000 -0.000000 -0.000000
							CHANNELS 3 Zrotation Yrotation Xrotation
							JOINT LeftHand
							{
								OFFSET 3.483560 -0.000000 -0.000000
								CHANNELS 3 Zrotation Yrotation Xrotation
								JOINT LeftFingerBase
								{
									OFFSET 0.000000 0.000000 0.000000
									CHANNELS 3 Zrotation Yrotation Xrotation
									JOINT LeftHandIndex1
									{
										OFFSET 0.715260 -0.000000 -0.000000
										CHANNELS 3 Zrotation Yrotation Xrotation
										End Site
										{
											OFFSET 0.000000 0.000000 0.000000
										}
									}
								}
								JOINT LThumb
								{
									OFFSET 0.000000 0.000000 0.000000
									CHANNELS 3 Zrotation Yrotation Xrotation
									End Site
									{
										OFFSET 0.000000 0.000000 0.000000
									}
								}
							}
						}
					}
				}
				JOINT RightShoulder
				{
					OFFSET 0.000000 0.000000 0.000000
					CHANNELS 3 Zrotation Yrotation Xrotation
					JOINT RightArm
					{
						OFFSET -3.136600 1.374050 -0.404650
						CHANNELS 3 Zrotation Yrotation Xrotation
						JOINT RightForeArm
						{
							OFFSET -5.241900 -0.000000 -0.000000
							CHANNELS 3 Zrotation Yrotation Xrotation
							JOINT RightHand
							{
								OFFSET -3.444170 -0.000000 -0.000000
								CHANNELS 3 Zrotation Yrotation Xrotation
								JOINT RightFingerBase
								{
									OFFSET 0.000000 0.000000 0.000000
									CHANNELS 3 Zrotation Yrotation Xrotation
									JOINT RightHandIndex1
									{
										OFFSET -0.622530 -0.000000 -0.000000
										CHANNELS 3 Zrotation Yrotation Xrotation
										End Site
										{
											OFFSET 0.000000 0.000000 0.000000
										}
									}
								}
								JOINT RThumb
								{
									OFFSET 0.000000 0.000000 0.000000
									CHANNELS 3 Zrotation Yrotation Xrotation
									End Site
									{
										OFFSET 0.000000 0.000000 0.000000
									}
								}
							}
						}
					}
				}
			}
		}
	}
}
MOTION
Frames: 9
Frame Time: 0.008333
0.078825 17.800440 37.436599 -179.499550 -15.907805 -171.027429 -2.941364 -0.769417 0.896304 -15.838154 -9.030410 1.687204 -1.054099 2.664252 8.143727 0.517022 -4.155390 0.834186 1.811800 8.462400 24.127700 1.662380 1.511710 -1.414663 11.504677 0.449132 -28.339150 1.271538 -7.546225 18.788176 -1.450641 0.650530 10.263748 -0.387800 -3.998700 11.073100 -2.946149 -0.845469 -9.104985 1.613143 -1.418772 -3.495015 1.621869 -0.777778 8.994818 -7.598001 -2.155990 -0.858151 10.452715 -5.566377 -0.498319 4.139800 -2.848100 -4.461000 6.967718 -3.471873 1.590132 -96.445926 1.531933 6.607516 7.980153 -14.511544 -1.095376 -0.023624 -0.399817 39.807203 6.959073 10.372958 1.253900 -7.125000 0.000000 0.000000 -17.748000 40.108400 2.220800 -7.190066 2.151380 2.366832 95.246318 -2.549520 -7.884787 -9.053050 19.691687 -1.915020 0.522435 -1.467410 39.192207 -1.065575 -8.553398 0.323700 7.125000 0.000000 0.000000 20.502900 -36.979200 4.267500 
0.079156 17.801213 37.443664 -179.653306 -15.844611 -170.985147 -2.921010 -0.768582 0.886461 -16.068745 -8.952562 1.792232 -1.065619 2.582843 7.921016 0.510684 -4.122417 0.821516 1.720500 8.257800 23.499900 1.653484 1.524901 -1.430104 11.379459 0.276767 -28.438168 1.271595 -7.546565 18.792694 -1.480552 0.614664 11.053617 -0.324800 -3.663200 10.131000 -2.938114 -0.715854 -9.008985 1.532379 -1.212263 -3.462185 1.265363 -0.673512 9.062330 -7.373360 -2.260588 -1.298080 10.549127 -5.682982 -0.346271 4.113600 -2.918600 -4.283500 6.967435 -3.467095 1.578819 -96.051326 1.377311 6.781059 7.860830 -14.292932 -1.057669 -0.035499 -0.389946 40.406614 7.474298 10.239997 1.336400 -7.125000 0.000000 0.000000 -17.266300 40.023400 2.193700 -7.239485 2.155247 2.347255 95.677417 -2.379699 -8.037085 -9.157829 19.876158 -1.945632 0.528080 -1.491134 39.002640 -1.095328 -8.504572 0.327100 7.125000 0.000000 0.000000 20.447200 -36.918400 4.286900 
0.083351 17.801103 37.452938 -179.741378 -15.753807 -170.981460 -2.938898 -0.775495 0.890884 -16.154475 -8.893657 1.721628 -1.062562 2.607592 7.983096 0.506633 -4.080315 0.801799 1.719400 8.255400 23.492600 1.640957 1.528690 -1.437875 11.283888 0.348425 -28.437319 1.276527 -7.532540 18.756686 -1.443125 0.339676 11.796452 -0.284100 -3.428100 9.472900 -2.959077 -0.994641 -8.918137 1.599327 -1.593538 -3.470095 1.494399 -0.875963 9.154898 -7.949400 -2.021483 -1.600403 10.556782 -5.347625 -0.219253 4.233300 -2.717000 -4.163500 6.940091 -3.431448 1.565411 -96.551555 1.404219 5.790247 7.883606 -14.318296 -1.060520 -0.039300 -0.389834 40.624960 7.744650 10.212605 1.383800 -7.125000 0.000000 0.000000 -17.029800 40.021600 2.162300 -7.216267 2.120115 2.334050 95.167824 -2.201223 -7.034826 -9.161943 19.909921 -1.940845 0.520410 -1.473199 38.897820 -1.202145 -8.468044 0.337600 7.125000 0.000000 0.000000 20.368200 -36.896000 4.280400 
0.088540 17.801765 37.459893 -179.725211 -15.728785 -170.967911 -2.914520 -0.776883 0.883953 -16.152371 -8.867599 1.696034 -1.067720 2.580569 7.914836 0.495837 -3.978838 0.839651 1.740700 8.303800 23.640700 1.666315 1.540260 -1.455622 11.241413 0.486434 -28.457347 1.273529 -7.554511 18.784923 -1.373385 -0.026959 12.340505 -0.202900 -2.900100 8.000700 -2.568944 -0.970235 -8.985811 1.504383 -1.561192 -3.443576 0.709730 -0.821179 9.245950 -7.580717 -1.974817 -1.638964 10.612776 -5.283953 -0.234831 4.215100 -2.712000 -4.179500 6.920404 -3.427552 1.584193 -95.984267 1.430685 6.154484 7.945029 -14.366792 -1.069361 -0.037069 -0.396795 40.081899 7.773765 10.227412 1.391400 -7.125000 0.000000 0.000000 -17.013500 40.044000 2.150400 -7.332933 2.124600 2.342320 95.822891 -2.076355 -7.005161 -9.171506 20.083133 -1.962145 0.523851 -1.517400 38.922921 -1.259210 -8.529304 0.350700 7.125000 0.000000 0.000000 20.305100 -36.929600 4.248000 
0.094391 17.798895 37.463205 -179.757991 -15.751471 -170.957413 -2.909845 -0.770770 0.890010 -16.206212 -8.864723 1.786682 -1.073268 2.559553 7.857756 0.486166 -3.857351 0.651482 1.396400 7.475600 21.132400 1.667197 1.543180 -1.468532 11.193991 0.561966 -28.469988 1.263075 -7.584532 18.847276 -1.313982 -0.349764 12.829562 -0.156300 -2.547400 7.021200 -2.534478 -0.998505 -8.993824 1.489676 -1.592173 -3.439240 0.577798 -0.833568 9.270274 -7.546954 -1.946323 -1.653681 10.643657 -5.248618 -0.212169 4.224800 -2.697900 -4.170600 6.903980 -3.444399 1.582298 -95.848740 0.803806 5.111330 7.407823 -13.451437 -0.928953 -0.052324 -0.370933 40.934004 8.084598 9.795378 1.393200 -7.125000 0.000000 0.000000 -16.613600 39.642100 2.266600 -7.349874 2.130165 2.345574 95.936535 -2.029508 -6.808390 -9.225325 20.189121 -1.978237 0.534163 -1.528738 38.676493 -1.192875 -8.588656 0.345600 7.125000 0.000000 0.000000 20.362800 -36.973900 4.238000 
0.101788 17.792602 37.466075 -179.836820 -15.773231 -170.946195 -2.907470 -0.759292 0.907038 -16.329934 -8.847955 1.940551 -1.075730 2.562577 7.865633 0.475087 -3.697936 0.285700 0.886800 6.002800 16.792500 1.676629 1.542604 -1.475273 11.078610 0.673464 -28.444696 1.257360 -7.596426 18.854404 -1.228461 -0.932461 13.938482 -0.093800 -1.975000 5.436500 -2.553279 -1.007435 -8.921449 1.463444 -1.591853 -3.463795 0.431073 -0.826084 9.098112 -7.494470 -1.952069 -1.468120 10.731892 -5.275378 -0.193546 4.260000 -2.716600 -4.192200 6.870695 -3.530620 1.568040 -95.536407 -0.894651 0.624644 5.787395 -10.656792 -0.563098 -0.103169 -0.280685 45.190462 9.152672 8.681704 1.417200 -7.125000 0.000000 0.000000 -15.365600 38.606700 2.489500 -7.378873 2.188320 2.358079 96.139469 -2.214408 -6.742147 -9.336380 20.358000 -2.003839 0.549009 -1.539659 38.541776 -1.057563 -8.562100 0.328400 7.125000 0.000000 0.000000 20.451000 -36.939000 4.276900 
0.106977 17.788848 37.471264 -179.951710 -15.776836 -170.912900 -2.903728 -0.758778 0.908988 -16.478536 -8.848475 1.997343 -1.077115 2.569446 7.881338 0.465333 -3.581240 0.098780 0.673500 5.247600 14.616300 1.663839 1.542299 -1.485796 10.970032 0.710362 -28.470497 1.245574 -7.616118 18.894870 -1.196070 -0.991911 13.654254 -0.170800 -2.662100 7.339500 -2.649945 -1.021865 -8.894053 1.450728 -1.595812 -3.471141 0.427454 -0.827628 9.040380 -7.515889 -1.958579 -1.318012 10.764924 -5.298895 -0.218737 4.287500 -2.728600 -4.231700 6.863069 -3.542044 1.571020 -95.527349 -0.724466 2.550634 5.962351 -10.950976 -0.596492 -0.094731 -0.298389 43.149058 8.943074 8.965494 1.427600 -7.125000 0.000000 0.000000 -15.618600 38.878100 2.425400 -7.389782 2.191063 2.365054 96.189535 -2.297068 -6.657009 -9.425182 20.472401 -2.023667 0.556315 -1.544611 38.447371 -1.011960 -8.563167 0.323200 7.125000 0.000000 0.000000 20.481700 -36.936100 4.285600 
0.108633 17.795472 37.477226 179.954449 -15.746593 -170.912214 -2.898621 -0.763307 0.900252 -16.569291 -8.851015 1.949250 -1.082421 2.533858 7.782074 0.459554 -3.566401 0.287963 0.812400 5.751900 16.066100 1.649320 1.546218 -1.489444 10.930888 0.584392 -28.541315 1.234403 -7.637121 18.956865 -1.212982 -0.920579 13.604063 -0.123900 -2.268900 6.249300 -2.680582 -1.045103 -8.825540 1.435176 -1.615519 -3.467521 0.357163 -0.836567 9.024501 -7.514599 -1.934054 -1.295599 10.768824 -5.267071 -0.227668 4.294800 -2.713900 -4.241200 6.856741 -3.544705 1.572301 -95.553870 -0.715627 3.720062 6.103235 -11.170134 -0.621764 -0.090238 -0.310984 42.026875 8.854662 9.268269 1.459200 -7.125000 0.000000 0.000000 -15.774000 39.174200 2.332500 -7.404656 2.193988 2.369936 96.210945 -2.296901 -6.432760 -9.452618 20.533195 -2.034112 0.559028 -1.554608 38.287024 -1.046550 -8.660786 0.332400 7.125000 0.000000 0.000000 20.472500 -37.020800 4.238300 
0.110620 17.801544 37.482746 179.906042 -15.686892 -170.892521 -2.896961 -0.769486 0.894048 -16.594971 -8.828312 1.857604 -1.085213 2.502527 7.697339 0.464518 -3.652071 0.484830 0.988400 6.327800 17.738500 1.640260 1.554053 -1.498146 10.914901 0.527183 -28.608761 1.227254 -7.654767 19.004672 -1.222202 -0.918881 13.737767 -0.025600 -1.033600 2.841200 -2.684281 -1.043353 -8.770260 1.423586 -1.607581 -3.463723 0.303092 -0.832830 9.020024 -7.491000 -1.930395 -1.361123 10.768454 -5.256026 -0.204208 4.286900 -2.709600 -4.215800 6.856797 -3.545956 1.568475 -95.620980 -0.823408 4.440309 6.210860 -11.344284 -0.643154 -0.087237 -0.314484 41.469785 8.867982 9.246297 1.458200 -7.125000 0.000000 0.000000 -15.759300 39.155700 2.337500 -7.410751 2.199228 2.371115 96.222995 -2.287680 -6.244540 -9.482530 20.589033 -2.045930 0.565077 -1.565095 38.103515 -1.039101 -8.797907 0.338000 7.125000 0.000000 0.000000 20.506100 -37.140900 4.182000 
